<?xml version="1.0"?>
<svg xmlns="http://www.w3.org/2000/svg" xmlns:xlink="http://www.w3.org/1999/xlink" xmlns:svgjs="http://svgjs.com/svgjs" version="1.1" width="512" height="512" x="0" y="0" viewBox="0 0 512 512" style="enable-background:new 0 0 512 512" xml:space="preserve" class=""><g><linearGradient xmlns="http://www.w3.org/2000/svg" id="a" gradientUnits="userSpaceOnUse" x1="256" x2="256" y1="0" y2="512"><stop stop-opacity="1" stop-color="#e50000" offset="0"/><stop stop-opacity="1" stop-color="#e50000" offset="0.28957528957528955"/><stop stop-opacity="1" stop-color="#e50000" offset="0.3328185799499276"/><stop stop-opacity="1" stop-color="#e50000" offset="0.39768339768339767"/><stop stop-opacity="1" stop-color="#e50000" offset="0.4532818297161559"/><stop stop-opacity="1" stop-color="#e50000" offset="0.4625483332453547"/><stop stop-opacity="1" stop-color="#0287d7" offset="0.5984555984555985"/></linearGradient><path xmlns="http://www.w3.org/2000/svg" d="m512 256c0 68.378906-26.628906 132.667969-74.980469 181.019531-48.351562 48.351563-112.640625 74.980469-181.019531 74.980469s-132.667969-26.628906-181.019531-74.980469c-48.351563-48.351562-74.980469-112.640625-74.980469-181.019531h40c0 119.101562 96.898438 216 216 216s216-96.898438 216-216-96.898438-216-216-216c-77.902344 0-148.230469 41.144531-186.570312 107h60.570312v40h-130v-130h40v61.492188c18.472656-29.011719 42.675781-54.09375 71.480469-73.828126 42.65625-29.21875 92.628906-44.664062 144.519531-44.664062 68.378906 0 132.667969 26.628906 181.019531 74.980469 48.351563 48.351562 74.980469 112.640625 74.980469 181.019531zm-150.027344.566406-169.972656 98.21875v-196.441406zm-129.972656 28.910156 50.027344-28.910156-50.027344-28.910156zm0 0" fill="url(#a)" data-original="url(#a)" style="" class=""/></g></svg>
